# AST/ASF file generated using VICON BodyLanguage
# -----------------------------------------------
:version 1.10
:name VICON
:units
  mass 1.0
  length 0.45
  angle deg
:documentation
   .ast/.asf automatically generated from VICON data using
   VICON BodyBuilder and BodyLanguage model FoxedUp or BRILLIANT.MOD
:root
   order TX TY TZ RX RY RZ
   axis XYZ
   position 0 0 0  
   orientation 0 0 0 
:bonedata
  begin
     id 1 
     name lhipjoint
     direction 0.576517 -0.752066 0.319413 
     length 2.45433 
     axis 0 0 0  XYZ
  end
  begin
     id 2 
     name lfemur
     direction 0.34202 -0.939693 0  
     length 7.54459  
     axis 0 0 20  XYZ
    dof rx ry rz
    limits (-160.0 20.0)
           (-70.0 70.0)
           (-60.0 70.0)
  end
  begin
     id 3 
     name ltibia
     direction 0.34202 -0.939693 0   
     length 7.73986   
     axis 0 0 20   XYZ
    dof rx
    limits (-10.0 170.0)
  end
  begin
     id 4 
     name lfoot
     direction 0.090693 -0.249177 0.964202   
     length 2.28437   
     axis -90 7.62852e-016 20   XYZ
    dof rx rz
    limits (-45.0 90.0)
           (-70.0 20.0)
  end
  begin
     id 5 
     name ltoes
     direction 1.5356e-011 -4.21928e-011 1   
     length 1.14243   
     axis -90 7.62852e-016 20   XYZ
    dof rx
    limits (-90.0 20.0)
  end
  begin
     id 6 
     name rhipjoint
     direction -0.573937 -0.753736 0.320122   
     length 2.44889  
     axis 0 0 0  XYZ 
  end
  begin
     id 7 
     name rfemur
     direction -0.34202 -0.939693 0   
     length 7.50166   
     axis 0 0 -20   XYZ
    dof rx ry rz
    limits (-160.0 20.0)
           (-70.0 70.0)
           (-70.0 60.0)
  end
  begin
     id 8 
     name rtibia
     direction -0.34202 -0.939693 0   
     length 7.54266   
     axis 0 0 -20   XYZ
    dof rx
    limits (-10.0 170.0)
 end
 begin
     id 9 
     name rfoot
     direction -0.114017 -0.31326 0.942798   
     length 2.34212  
     axis -90 -7.62852e-016 -20   XYZ
    dof rx rz
    limits (-45.0 90.0)
           (-20.0 70.0)
  end
  begin
     id 10 
     name rtoes
     direction -1.53557e-011 -4.21867e-011 1   
     length 1.16246   
     axis -90 -7.62852e-016 -20   XYZ
    dof rx
    limits (-90.0 20.0)
  end
  begin
     id 11 
     name lowerback
     direction -0.0228371 0.999155 -0.034167   
     length 2.0537   
     axis 0 0 0   XYZ
    dof rx ry rz
    limits (-20.0 45.0)
           (-30.0 30.0)
           (-30.0 30.0)
  end
  begin
     id 12 
     name upperback
     direction 0.0198981 0.999794 0.00389455   
     length 2.05302   
     axis 0 0 0   XYZ
    dof rx ry rz
    limits (-20.0 45.0)
           (-30.0 30.0)
           (-30.0 30.0)
  end
  begin
     id 13 
     name thorax
     direction 0.0304566 0.99935 0.0192987   
     length 2.05315   
     axis 0 0 0   XYZ
    dof rx ry rz
    limits (-20.0 45.0)
           (-30.0 30.0)
           (-30.0 30.0)
  end
  begin
     id 14 
     name lowerneck
     direction -0.0196762 0.99417 0.106017   
     length 1.82056   
     axis 0 0 0   XYZ
    dof rx ry rz
    limits (-20.0 45.0)
           (-30.0 30.0)
           (-30.0 30.0)
  end
  begin
     id 15 
     name upperneck
     direction 0.00517787 0.9802 -0.197944   
     length 1.83835   
     axis 0 0 0   XYZ
    dof rx ry rz
    limits (-20.0 45.0)
           (-30.0 30.0)
           (-30.0 30.0)
  end
  begin
     id 16
     name head
     direction 0.00211419 0.996945 -0.078081  
     length 1.85629  
     axis 0 0 0   XYZ
    dof rx ry rz
    limits (-20.0 45.0)
           (-30.0 30.0)
           (-30.0 30.0)
  end
  begin
     id 17 
     name lclavicle
     direction 0.930001 0.365811 -0.0357824  
     length 3.81961  
     axis 0 0 0   XYZ
    dof ry rz
    limits (-20.0 10.0)
           (0.0 20.0)
  end
  begin
     id 18 
     name lhumerus
     direction 1 -4.48968e-011 -3.06644e-027   
     length 5.14507   
     axis 180 -30 -90   XYZ
    dof rx ry rz
    limits (-60.0 90.0)
           (-90.0 90.0)
           (-90.0 90.0)
  end
  begin
     id 19
     name lradius
     direction 1 -4.48965e-011 9.06925e-028   
     length 3.50646   
     axis 180 -30 -90   XYZ
    dof rx
    limits (-10.0 170.0)
  end
  begin
     id 20
     name lwrist
     direction 1 -4.48957e-011 1.03922e-027   
     length 1.75323   
     axis -2.56395e-016 90 90   XYZ
    dof ry
    limits (-180.0 0.0)
 end
  begin
     id 21 
     name lhand
     direction 1 -4.48967e-011 2.08017e-027   
     length 0.629969   
     axis -1.32723e-015 90 90   XYZ
    dof rx rz
    limits (-90.0 90.0)
           (-45.0 45.0)
  end
  begin
     id 22 
     name lfingers
     direction 1 -4.49089e-011 4.20095e-027   
     length 0.507897   
     axis -2.6545e-015 90 90   XYZ
    dof rx
    limits (0.0 90.0)
  end
  begin
     id 23
     name lthumb
     direction 0.707107 -6.35001e-011 0.707107   
     length 0.729241   
     axis -90 45 5.05613e-014   XYZ
    dof rx rz
    limits (-45.0 45.0)
           (-45.0 45.0)
  end
  begin
     id 24 
     name rclavicle
     direction -0.881882 0.464123 -0.0829113   
     length 3.47515  
     axis 0 0 0   XYZ 
    dof ry rz
    limits (-10.0 20.0)
           (-20.0 0.0)
  end
  begin
     id 25 
     name rhumerus
     direction -1 -4.48961e-011 -1.55672e-027  
     length 5.232   
     axis 180 30 90   XYZ
    dof rx ry rz
    limits (-90.0 60.0)
           (-90.0 90.0)
           (-90.0 90.0)
  end
  begin
     id 26 
     name rradius
     direction -1 -4.48963e-011 6.18178e-029   
     length 3.65641   
     axis 180 30 90   XYZ
    dof rx
    limits (-10.0 170.0)
  end
  begin
     id 27 
     name rwrist
     direction -1 -4.48982e-011 1.04136e-027   
     length 1.8282   
     axis -2.56395e-016 -90 -90   XYZ
    dof ry
    limits (-180.0 0.0)
  end
  begin
     id 28
     name rhand
     direction -1 -4.48929e-011 2.07378e-027   
     length 0.656807   
     axis -1.32723e-015 -90 -90   XYZ
    dof rx rz
    limits (-90.0 90.0)
           (-45.0 45.0)
  end
  begin
     id 29
     name rfingers
     direction -1 -4.489e-011 4.13816e-027   
     length 0.529535   
     axis -2.6545e-015 -90 -90   XYZ
    dof rx
    limits (0.0 90.0)
  end
  begin
     id 30
     name rthumb
     direction -0.707107 -6.34843e-011 0.707107   
     length 0.760309   
     axis -90 -45 -5.05613e-014   XYZ
    dof rx rz
    limits (-45.0 45.0)
           (-45.0 45.0)
  end
:hierarchy
  begin
    root lhipjoint rhipjoint lowerback
    lhipjoint lfemur
    lfemur ltibia
    ltibia lfoot
    lfoot ltoes
    rhipjoint rfemur
    rfemur rtibia
    rtibia rfoot
    rfoot rtoes
    lowerback upperback
    upperback thorax
    thorax lowerneck lclavicle rclavicle
    lowerneck upperneck
    upperneck head
    lclavicle lhumerus
    lhumerus lradius
    lradius lwrist
    lwrist lhand lthumb
    lhand lfingers
    rclavicle rhumerus
    rhumerus rradius
    rradius rwrist
    rwrist rhand rthumb
    rhand rfingers
  end

#!OML:ASF H:\ManfredETheater\Project 1\Capture day 1\Session 1\subject.ASF
:FULLY-SPECIFIED
:DEGREES
16
root -2.53115 15.9347 45.989 -159.652 0.108187 -177.671
lowerback 14.7413 0.465319 4.45179
upperback 1.19857 2.01627 3.69297
thorax -7.00036 1.06688 0.979118
lowerneck -14.9394 -1.87401 -2.3061
upperneck 6.96893 -1.86214 -3.01254
head 4.50171 -1.22489 -0.720786
rclavicle -1.59028e-014 -6.2816e-014
rhumerus -36.6408 7.20538 -88.8806
rradius 56.0202
rwrist -1.47659
rhand -19.8007 -5.37357
rfingers 7.12502
rthumb 6.53219 -35.2528
lclavicle -1.59028e-014 -6.2816e-014
lhumerus -39.7147 -14.2379 101.083
lradius 77.7738
lwrist 9.15792
lhand -23.2972 -9.97899
lfingers 7.12502
lthumb 3.15604 19.9774
rfemur -20.6578 -3.70565 27.2716
rtibia 44.9203
rfoot -34.2488 -11.787
rtoes -21.375
lfemur -58.8607 5.51724 -18.1294
ltibia 79.2768
lfoot -19.4926 -5.99897
ltoes -9.47614
17
root -2.51457 15.8958 45.7889 -159.824 0.0284543 -177.72
lowerback 14.8458 0.60775 4.54955
upperback 1.34854 2.23529 3.67647
thorax -6.89113 1.17992 0.859837
lowerneck -14.8675 -2.05262 -2.4741
upperneck 6.79895 -2.0889 -2.94212
head 4.43856 -1.33501 -0.688114
rclavicle 9.54166e-015 -1.59028e-015
rhumerus -36.2613 7.83665 -89.0806
rradius 57.1078
rwrist -1.76542
rhand -20.2748 -5.43607
rfingers 7.12502
rthumb 6.07447 -35.329
lclavicle 9.54166e-015 -1.59028e-015
lhumerus -40.2053 -13.784 100.984
lradius 78.1849
lwrist 9.45455
lhand -23.6049 -10.1429
lfingers 7.12502
lthumb 2.85894 19.8177
rfemur -19.8792 -3.97977 27.1367
rtibia 45.2789
rfoot -34.1574 -11.313
rtoes -22.5356
lfemur -60.2506 5.718 -18.639
ltibia 78.5285
lfoot -19.578 -6.44885
ltoes -9.71138
18
root -2.49779 15.8574 45.5819 -159.997 -0.0456942 -177.779
lowerback 14.9072 0.752348 4.61895
upperback 1.50275 2.44779 3.65542
thorax -6.75333 1.2911 0.754127
lowerneck -14.7989 -2.22461 -2.63242
upperneck 6.63953 -2.30814 -2.86896
head 4.37973 -1.441 -0.655444
rclavicle -1.51076e-014 -1.03368e-014
rhumerus -35.861 8.54466 -89.2884
rradius 58.3176
rwrist -1.98712
rhand -20.8524 -5.33316
rfingers 7.12502
rthumb 5.51687 -35.2413
lclavicle -1.51076e-014 -1.03368e-014
lhumerus -40.8093 -13.2772 100.83
lradius 78.6867
lwrist 9.6299
lhand -23.9589 -10.2253
lfingers 7.12502
lthumb 2.51702 19.7396
rfemur -19.0037 -4.22184 26.9736
rtibia 45.4956
rfoot -34.0767 -10.7721
rtoes -23.435
lfemur -61.6008 5.9089 -19.1808
ltibia 77.6383
lfoot -19.5977 -6.94431
ltoes -10.0161
19
root -2.48066 15.819 45.3686 -160.143 -0.096333 -177.828
lowerback 14.9084 0.904939 4.66468
upperback 1.65095 2.66088 3.63314
thorax -6.58881 1.40329 0.662294
lowerneck -14.7319 -2.38601 -2.78323
upperneck 6.49421 -2.51392 -2.79253
head 4.32603 -1.53998 -0.621843
rclavicle -2.78299e-014 -6.52014e-014
rhumerus -35.4529 9.32026 -89.5075
rradius 59.673
rwrist -2.09751
rhand -21.51 -5.05381
rfingers 7.12502
rthumb 4.88187 -34.9776
lclavicle -2.78299e-014 -6.52014e-014
lhumerus -41.5615 -12.7283 100.62
lradius 79.3261
lwrist 9.65028
lhand -24.3491 -10.204
lfingers 7.12502
lthumb 2.14018 19.765
rfemur -18.0446 -4.3955 26.8042
rtibia 45.5402
rfoot -34.0068 -10.1943
rtoes -24.1087
lfemur -62.9388 6.10605 -19.7361
ltibia 76.6167
lfoot -19.5482 -7.4897
ltoes -10.369
20
root -2.46304 15.7804 45.1488 -160.26 -0.137987 -177.862
lowerback 14.8622 1.05977 4.68915
upperback 1.78229 2.86919 3.61629
thorax -6.41696 1.5133 0.591197
lowerneck -14.672 -2.53522 -2.9326
upperneck 6.37625 -2.70213 -2.71364
head 4.28246 -1.63038 -0.58654
rclavicle -7.95139e-016 -2.38542e-014
rhumerus -35.0602 10.1547 -89.7339
rradius 61.211
rwrist -2.09995
rhand -22.1801 -4.66788
rfingers 7.12502
rthumb 4.23485 -34.6055
lclavicle -7.95139e-016 -2.38542e-014
lhumerus -42.498 -12.1494 100.359
lradius 80.1416
lwrist 9.51667
lhand -24.7191 -10.1173
lfingers 7.12502
lthumb 1.78287 19.855
rfemur -16.9867 -4.50105 26.647
rtibia 45.3827
rfoot -33.952 -9.61201
rtoes -24.5752
lfemur -64.2581 6.29277 -20.285
ltibia 75.4723
lfoot -19.4341 -8.09089
ltoes -10.7201
21
root -2.44488 15.7416 44.9221 -160.353 -0.178208 -177.877
lowerback 14.7746 1.21159 4.70271
upperback 1.89707 3.06808 3.60461
thorax -6.24075 1.61851 0.535731
lowerneck -14.6178 -2.67305 -3.08413
upperneck 6.28138 -2.87367 -2.62929
head 4.24752 -1.71246 -0.548111
rclavicle -3.18055e-015 -7.95139e-015
rhumerus -34.6961 11.0253 -89.9714
rradius 62.9596
rwrist -2.02126
rhand -22.8248 -4.17626
rfingers 7.12502
rthumb 3.61234 -34.1254
lclavicle -3.18055e-015 -7.95139e-015
lhumerus -43.6443 -11.5644 100.044
lradius 81.1729
lwrist 9.24737
lhand -25.0344 -9.98969
lfingers 7.12502
lthumb 1.47833 19.9849
rfemur -15.8184 -4.53693 26.5157
rtibia 45.0023
rfoot -33.9032 -9.05606
rtoes -24.8663
lfemur -65.5457 6.46126 -20.8151
ltibia 74.2122
lfoot -19.2616 -8.74567
ltoes -11.0507
22
root -2.42636 15.703 44.6886 -160.422 -0.212846 -177.869
lowerback 14.6639 1.36027 4.71247
upperback 1.99148 3.25965 3.59473
thorax -6.07395 1.71923 0.487429
lowerneck -14.587 -2.79991 -3.23806
upperneck 6.21695 -3.02808 -2.53913
head 4.22625 -1.78624 -0.506801
rclavicle 1.82882e-014 0
rhumerus -34.3754 11.9096 -90.2243
rradius 64.9425
rwrist -1.90012
rhand -23.3795 -3.6583
rfingers 7.12502
rthumb 3.0766 -33.6159
lclavicle 1.82882e-014 0
lhumerus -45.0143 -10.9992 99.6783
lradius 82.4397
lwrist 8.88684
lhand -25.2951 -9.86484
lfingers 7.12502
lthumb 1.22653 20.1114
rfemur -14.5347 -4.5078 26.4164
rtibia 44.3834
rfoot -33.8474 -8.54302
rtoes -25.0355
lfemur -66.7828 6.60415 -21.308
ltibia 72.8464
lfoot -19.0364 -9.43748
ltoes -11.3729
